HIERARCHY
ROOT Hips
{
	OFFSET -3.958830 18.904000 13.208200
	CHANNELS 6 Xposition Yposition Zposition Zrotation Yrotation Xrotation 
	JOINT LHipJoint
	{
		OFFSET 0.000000 0.000000 0.000000
		CHANNELS 3 Zrotation Yrotation Xrotation
		JOINT LeftUpLeg
		{
			OFFSET 1.800000 -1.400000 0.085000
			CHANNELS 3 Zrotation Yrotation Xrotation
			JOINT LeftLeg
			{
				OFFSET 2.215000 -6.000000 0.000000
				CHANNELS 3 Zrotation Yrotation Xrotation
				JOINT LeftFoot
				{
					OFFSET 2.500000 -6.900000 0.000000
					CHANNELS 3 Zrotation Yrotation Xrotation
					JOINT LeftToeBase
					{
						OFFSET 0.200000 -0.500000 1.950000
						CHANNELS 3 Zrotation Yrotation Xrotation
						End Site
						{
							OFFSET 0.000000 0.000000 0.000000
						}
					}
				}
			}
		}
	}
	JOINT RHipJoint
	{
		OFFSET 0.000000 0.000000 0.000000
		CHANNELS 3 Zrotation Yrotation Xrotation
		JOINT RightUpLeg
		{
			OFFSET -1.800000 -1.400000 0.085000
			CHANNELS 3 Zrotation Yrotation Xrotation
			JOINT RightLeg
			{
				OFFSET -2.215000 -6.000000 0.000000
				CHANNELS 3 Zrotation Yrotation Xrotation
				JOINT RightFoot
				{
					OFFSET -2.500000 -6.900000 0.000000
					CHANNELS 3 Zrotation Yrotation Xrotation
					JOINT RightToeBase
					{
						OFFSET -0.200000 -0.500000 1.950000
						CHANNELS 3 Zrotation Yrotation Xrotation
						End Site
						{
							OFFSET 0.000000 0.000000 0.000000
						}
					}
				}
			}
		}
	}
	JOINT LowerBack
	{
		OFFSET 0.000000 0.000000 0.000000
		CHANNELS 3 Zrotation Yrotation Xrotation
		JOINT Spine
		{
			OFFSET -0.087000 1.940000 -0.288900
			CHANNELS 3 Zrotation Yrotation Xrotation
			JOINT Spine1
			{
				OFFSET 0.000000 1.950000 0.060000
				CHANNELS 3 Zrotation Yrotation Xrotation
				JOINT Neck
				{
					OFFSET 0.000000 0.000000 0.000000
					CHANNELS 3 Zrotation Yrotation Xrotation
					JOINT Neck1
					{
						OFFSET 0.000000 1.600000 0.340000
						CHANNELS 3 Zrotation Yrotation Xrotation
						JOINT Head
						{
							OFFSET 0.000000 1.667000 -0.240000
							CHANNELS 3 Zrotation Yrotation Xrotation
							End Site
							{
								OFFSET 0.000000 0.000000 0.000000
							}
						}
					}
				}
				JOINT LeftShoulder
				{
					OFFSET 0.000000 0.000000 0.000000
					CHANNELS 3 Zrotation Yrotation Xrotation
					JOINT LeftArm
					{
						OFFSET 2.700000 1.550000 -0.730000
						CHANNELS 3 Zrotation Yrotation Xrotation
						JOINT LeftForeArm
						{
							OFFSET 5.450000 0.000000 0.000000
							CHANNELS 3 Zrotation Yrotation Xrotation
							JOINT LeftHand
							{
								OFFSET 3.450000 0.000000 0.000000
								CHANNELS 3 Zrotation Yrotation Xrotation
								JOINT LeftHandIndex1
								{
									OFFSET 0.750000 0.000000 0.000000
									CHANNELS 3 Zrotation Yrotation Xrotation
									End Site
									{
										OFFSET 0.000000 0.000000 0.000000
									}
								}
							}
						}
					}
				}
				JOINT RightShoulder
				{
					OFFSET 0.000000 0.000000 0.000000
					CHANNELS 3 Zrotation Yrotation Xrotation
					JOINT RightArm
					{
						OFFSET -2.700000 1.550000 -0.730000
						CHANNELS 3 Zrotation Yrotation Xrotation
						JOINT RightForeArm
						{
							OFFSET -5.450000 0.000000 0.000000
							CHANNELS 3 Zrotation Yrotation Xrotation
							JOINT RightHand
							{
								OFFSET -3.450000 0.000000 0.000000
								CHANNELS 3 Zrotation Yrotation Xrotation
								JOINT RightHandIndex1
								{
									OFFSET -0.750000 0.000000 0.000000
									CHANNELS 3 Zrotation Yrotation Xrotation
									End Site
									{
										OFFSET 0.000000 0.000000 0.000000
									}
								}
							}
						}
					}
				}
			}
		}
	}
}
MOTION
Frames: 8
Frame Time: 0.016667
-3.206110 17.617770 7.155200 -1.366270 19.647661 -4.908774 -14.844773 12.005925 2.368033 10.171124 -1.387903 -13.867460 -5.863382 4.888018 10.634553 -0.158501 3.337264 3.435003 0.218810 0.243190 -0.130750 18.496323 -12.334699 3.001315 -12.501108 -0.950163 -3.316194 7.755776 -5.159778 6.224289 -0.218100 -4.662051 2.818114 0.271370 0.293100 0.032420 -4.884253 3.222801 -7.288035 12.995487 1.590495 11.987614 -4.467320 6.208373 27.410399 12.506754 4.824495 -15.999679 12.432829 -12.859653 42.650535 3.412140 -17.948270 -1.390800 -15.687310 -10.605123 3.056087 -48.480273 -5.101413 -6.190393 -36.206873 -35.073554 7.594158 -3.629574 3.468060 -0.192430 0.124460 -0.211890 0.209180 -4.621062 13.334562 18.385988 -65.004781 61.009052 -44.875038 -119.343412 42.478485 -55.161852 2.620959 -0.793634 0.005900 0.187830 -0.011650 0.191230 
-3.196760 17.603430 7.157490 -1.449466 19.661824 -4.924540 -14.838295 12.017827 2.339086 10.466010 -1.361475 -14.275754 -5.829424 5.092732 11.796646 -0.153710 3.404281 3.400678 0.214620 0.234570 -0.128850 18.497549 -12.373109 3.002842 -12.485526 -0.938693 -3.429473 7.799690 -5.207316 6.478593 -0.214019 -4.661693 2.816057 0.264710 0.288530 0.032810 -4.900641 3.287862 -7.271936 13.043240 1.801739 11.965219 -4.069247 6.229510 27.139672 12.355447 4.882565 -16.037319 12.730212 -12.984909 42.589406 3.369780 -17.966820 -1.252970 -15.646822 -11.162730 3.476052 -48.781061 -4.779773 -6.304641 -36.113986 -34.717863 7.397355 -3.628209 3.465218 -0.189780 0.122370 -0.211450 0.205170 -4.395100 14.026580 17.939188 -62.360471 62.257124 -42.867366 -119.552516 43.122308 -56.710861 2.612316 -0.813036 0.005930 0.182220 -0.010510 0.187980 
-3.189330 17.600340 7.156350 -1.536707 19.516106 -5.009171 -14.840669 12.049490 2.337966 10.972800 -1.316265 -14.768337 -6.164867 5.457277 13.158530 -0.133537 3.544238 3.336976 0.215970 0.234220 -0.124230 18.486819 -12.380873 2.995221 -12.535001 -0.928055 -3.490745 7.810997 -5.248970 6.745399 -0.216164 -4.651067 2.816886 0.259630 0.281530 0.032860 -4.878382 3.251678 -7.285149 12.951699 1.885444 12.167178 -3.666408 6.149539 27.219137 12.089347 4.924123 -16.310036 12.876074 -12.791422 42.594228 3.643080 -17.733080 -1.305660 -15.511010 -11.661875 3.721032 -48.879661 -4.468710 -6.481261 -36.720083 -34.410805 7.381025 -3.616941 3.468741 -0.181430 0.114780 -0.203220 0.205280 -4.068718 14.547706 18.155303 -62.528173 63.197449 -43.613612 -119.192463 44.018724 -57.533723 2.606889 -0.781504 0.007880 0.178520 -0.014410 0.186040 
-3.180300 17.587140 7.154760 -1.536163 19.642006 -5.063047 -14.849019 12.073725 2.348275 11.426743 -1.297255 -15.487331 -6.485285 5.860368 14.687188 -0.110526 3.701345 3.265683 0.215250 0.232750 -0.122670 18.470635 -12.383235 2.978746 -12.765104 -0.908056 -3.612797 7.999442 -5.353182 7.170836 -0.214077 -4.659239 2.810979 0.254530 0.274550 0.029820 -4.848304 3.207449 -7.299773 12.715138 1.988836 12.403795 -3.111279 6.032109 27.344818 11.735566 4.928998 -16.586225 12.937459 -12.695909 42.624621 3.772970 -17.623240 -1.197720 -15.332493 -12.105427 3.925828 -48.920107 -4.189997 -6.659825 -37.311316 -34.460189 7.502473 -3.604855 3.477180 -0.178310 0.108750 -0.199880 0.204940 -3.600197 15.049595 18.422734 -62.308296 64.488945 -44.247555 -119.005134 44.678684 -58.412648 2.605835 -0.764060 0.009760 0.172920 -0.018400 0.184820 
-3.171310 17.562510 7.155130 -1.563722 19.767718 -5.028233 -14.867045 12.082257 2.370993 11.968120 -1.272147 -16.343664 -6.822889 6.249905 15.979104 -0.088006 3.866563 3.194013 0.213210 0.230440 -0.124740 18.450951 -12.347209 2.971095 -13.003208 -0.865477 -3.710175 8.332336 -5.429304 7.298652 -0.213432 -4.671241 2.804775 0.251240 0.276090 0.027780 -4.791511 3.122697 -7.323599 12.296104 2.117313 12.580715 -2.204493 5.843510 27.659173 11.234262 4.889038 -16.944784 12.792264 -12.526226 42.332200 4.024200 -17.526620 -1.218440 -14.935992 -12.265311 3.967527 -49.067551 -3.925232 -6.779425 -38.679925 -34.906230 7.980197 -3.597548 3.491796 -0.177660 0.106370 -0.199640 0.207040 -3.046060 15.251737 18.996122 -63.198650 65.654707 -46.249525 -118.682233 44.876446 -58.621509 2.611208 -0.748462 0.009300 0.173040 -0.020000 0.186480 
-3.158410 17.535080 7.155200 -1.853205 20.014895 -5.023069 -14.871829 12.031899 2.408994 12.809981 -1.215346 -17.365653 -7.407309 6.743253 17.245002 -0.061311 4.074322 3.099033 0.217080 0.240630 -0.121220 18.452571 -12.320970 2.965564 -13.062891 -0.839351 -3.787079 8.832681 -5.547235 7.452539 -0.222740 -4.692460 2.796729 0.253410 0.271390 0.024200 -4.787165 3.149364 -7.351073 12.197174 2.298260 12.774212 -1.427790 5.705882 27.335358 10.806085 5.017319 -16.925021 13.244762 -12.246467 41.756424 4.467840 -17.037190 -1.509330 -14.978047 -13.131305 4.547500 -49.046161 -3.284669 -7.041802 -39.589891 -34.753456 8.084661 -3.590782 3.490899 -0.171680 0.101930 -0.191520 0.207550 -2.251251 16.161628 18.374022 -59.082639 67.952936 -43.266012 -119.110551 45.187865 -60.175273 2.606406 -0.778409 0.010160 0.175010 -0.024650 0.184880 
-3.140870 17.506990 7.154740 -2.244655 20.462838 -5.082819 -14.835720 11.843574 2.397282 13.585143 -1.146534 -18.186932 -7.962019 7.229940 18.497915 -0.023935 4.265252 3.008549 0.230430 0.260390 -0.111220 18.513966 -12.387483 2.978357 -13.023027 -0.860339 -3.779623 9.295672 -5.652118 7.378276 -0.246840 -4.743214 2.777788 0.254230 0.256950 0.026420 -4.936451 3.578205 -7.333643 12.587757 3.013974 12.737298 0.206113 6.194129 24.748442 10.425687 5.035764 -15.121931 14.295901 -12.322171 41.262914 4.959700 -16.740500 -1.934740 -15.470272 -15.745065 7.187175 -49.224151 -1.639683 -7.198507 -40.132530 -34.755132 8.186104 -3.574883 3.488439 -0.164520 0.090140 -0.173590 0.210700 -1.022431 20.064944 12.199584 -25.606159 71.239745 -11.308968 -119.824415 46.240403 -63.476006 2.590719 -0.850723 0.022840 0.168810 -0.037480 0.186880 
-3.123490 17.480400 7.149910 -2.680690 21.010723 -5.219507 -14.794534 11.656133 2.452859 14.374551 -1.077965 -19.008898 -8.610697 7.666464 19.366402 -0.020424 4.430649 2.923481 0.245100 0.276130 -0.085300 18.551599 -12.529441 3.024903 -12.957534 -0.861574 -3.825390 9.559874 -5.727485 7.405018 -0.269474 -4.767404 2.763864 0.257900 0.234800 0.026870 -5.082799 4.103199 -7.547712 12.989568 3.973949 13.622167 1.790708 7.470740 19.047066 10.687983 5.192581 -11.752811 16.263287 -12.660565 41.267959 5.003150 -16.155600 -2.488110 -16.772494 -19.471798 11.669451 -49.713705 1.253959 -7.348145 -40.309705 -34.124123 7.918769 -3.547680 3.487933 -0.144430 0.077120 -0.151150 0.205450 -0.277192 26.400739 0.485885 22.030767 61.792290 36.307782 -119.389469 45.423773 -67.648505 2.434431 -0.707813 0.025870 0.168350 -0.047870 0.175500 
